<mxfile host="Electron" modified="2024-05-01T14:50:12.423Z" agent="Mozilla/5.0 (Windows NT 10.0; Win64; x64) AppleWebKit/537.36 (KHTML, like Gecko) draw.io/24.2.5 Chrome/120.0.6099.109 Electron/28.1.0 Safari/537.36" etag="qKKklIBNQ7VYlhFHYLcX" version="24.2.5" type="device">
  <diagram name="Page-1" id="YGoAiBiYgdVGAvHru-7j">
    <mxGraphModel dx="521" dy="621" grid="1" gridSize="10" guides="1" tooltips="1" connect="1" arrows="1" fold="1" page="1" pageScale="1" pageWidth="850" pageHeight="1100" math="0" shadow="0">
      <root>
        <mxCell id="0" />
        <mxCell id="1" parent="0" />
        <mxCell id="dJaQee-8s53nD2EW2IF9-1" value=":Receptionist" style="html=1;whiteSpace=wrap;" vertex="1" parent="1">
          <mxGeometry x="220" y="50" width="110" height="50" as="geometry" />
        </mxCell>
        <mxCell id="dJaQee-8s53nD2EW2IF9-3" value=":Doctor" style="html=1;whiteSpace=wrap;" vertex="1" parent="1">
          <mxGeometry x="425" y="50" width="110" height="50" as="geometry" />
        </mxCell>
        <mxCell id="dJaQee-8s53nD2EW2IF9-4" value=":Patient" style="html=1;whiteSpace=wrap;" vertex="1" parent="1">
          <mxGeometry x="50" y="50" width="110" height="50" as="geometry" />
        </mxCell>
        <mxCell id="dJaQee-8s53nD2EW2IF9-5" value="" style="html=1;points=[[0,0,0,0,5],[0,1,0,0,-5],[1,0,0,0,5],[1,1,0,0,-5]];perimeter=orthogonalPerimeter;outlineConnect=0;targetShapes=umlLifeline;portConstraint=eastwest;newEdgeStyle={&quot;curved&quot;:0,&quot;rounded&quot;:0};" vertex="1" parent="1">
          <mxGeometry x="100" y="120" width="10" height="120" as="geometry" />
        </mxCell>
        <mxCell id="dJaQee-8s53nD2EW2IF9-6" value="" style="html=1;points=[[0,0,0,0,5],[0,1,0,0,-5],[1,0,0,0,5],[1,1,0,0,-5]];perimeter=orthogonalPerimeter;outlineConnect=0;targetShapes=umlLifeline;portConstraint=eastwest;newEdgeStyle={&quot;curved&quot;:0,&quot;rounded&quot;:0};" vertex="1" parent="1">
          <mxGeometry x="475" y="120" width="10" height="120" as="geometry" />
        </mxCell>
        <mxCell id="dJaQee-8s53nD2EW2IF9-13" style="edgeStyle=orthogonalEdgeStyle;rounded=0;orthogonalLoop=1;jettySize=auto;html=1;curved=0;" edge="1" parent="1">
          <mxGeometry relative="1" as="geometry">
            <mxPoint x="280" y="140" as="sourcePoint" />
            <mxPoint x="475" y="140" as="targetPoint" />
          </mxGeometry>
        </mxCell>
        <mxCell id="dJaQee-8s53nD2EW2IF9-16" style="edgeStyle=orthogonalEdgeStyle;rounded=0;orthogonalLoop=1;jettySize=auto;html=1;curved=0;" edge="1" parent="1" source="dJaQee-8s53nD2EW2IF9-7" target="dJaQee-8s53nD2EW2IF9-5">
          <mxGeometry relative="1" as="geometry" />
        </mxCell>
        <mxCell id="dJaQee-8s53nD2EW2IF9-7" value="" style="html=1;points=[[0,0,0,0,5],[0,1,0,0,-5],[1,0,0,0,5],[1,1,0,0,-5]];perimeter=orthogonalPerimeter;outlineConnect=0;targetShapes=umlLifeline;portConstraint=eastwest;newEdgeStyle={&quot;curved&quot;:0,&quot;rounded&quot;:0};" vertex="1" parent="1">
          <mxGeometry x="270" y="120" width="10" height="120" as="geometry" />
        </mxCell>
        <mxCell id="dJaQee-8s53nD2EW2IF9-9" style="edgeStyle=orthogonalEdgeStyle;rounded=0;orthogonalLoop=1;jettySize=auto;html=1;exitX=0.5;exitY=1;exitDx=0;exitDy=0;entryX=1;entryY=0;entryDx=0;entryDy=5;entryPerimeter=0;" edge="1" parent="1" source="dJaQee-8s53nD2EW2IF9-3" target="dJaQee-8s53nD2EW2IF9-6">
          <mxGeometry relative="1" as="geometry" />
        </mxCell>
        <mxCell id="dJaQee-8s53nD2EW2IF9-10" style="edgeStyle=orthogonalEdgeStyle;rounded=0;orthogonalLoop=1;jettySize=auto;html=1;exitX=0.5;exitY=1;exitDx=0;exitDy=0;entryX=1;entryY=0;entryDx=0;entryDy=5;entryPerimeter=0;" edge="1" parent="1" source="dJaQee-8s53nD2EW2IF9-1" target="dJaQee-8s53nD2EW2IF9-7">
          <mxGeometry relative="1" as="geometry" />
        </mxCell>
        <mxCell id="dJaQee-8s53nD2EW2IF9-11" style="edgeStyle=orthogonalEdgeStyle;rounded=0;orthogonalLoop=1;jettySize=auto;html=1;exitX=0.5;exitY=1;exitDx=0;exitDy=0;entryX=1;entryY=0;entryDx=0;entryDy=5;entryPerimeter=0;" edge="1" parent="1" source="dJaQee-8s53nD2EW2IF9-4" target="dJaQee-8s53nD2EW2IF9-5">
          <mxGeometry relative="1" as="geometry" />
        </mxCell>
        <mxCell id="dJaQee-8s53nD2EW2IF9-12" value="Select" style="html=1;verticalAlign=bottom;startArrow=oval;startFill=1;endArrow=block;startSize=8;curved=0;rounded=0;" edge="1" parent="1">
          <mxGeometry width="60" relative="1" as="geometry">
            <mxPoint x="210" y="150" as="sourcePoint" />
            <mxPoint x="270" y="150" as="targetPoint" />
          </mxGeometry>
        </mxCell>
        <mxCell id="dJaQee-8s53nD2EW2IF9-14" value="[Send Date and Time ]" style="text;html=1;align=center;verticalAlign=middle;resizable=0;points=[];autosize=1;strokeColor=none;fillColor=none;" vertex="1" parent="1">
          <mxGeometry x="300" y="108" width="140" height="30" as="geometry" />
        </mxCell>
        <mxCell id="dJaQee-8s53nD2EW2IF9-15" value="[Confirm Appointment]" style="html=1;verticalAlign=bottom;endArrow=open;dashed=1;endSize=8;curved=0;rounded=0;" edge="1" parent="1" source="dJaQee-8s53nD2EW2IF9-6" target="dJaQee-8s53nD2EW2IF9-7">
          <mxGeometry relative="1" as="geometry">
            <mxPoint x="310" y="290" as="sourcePoint" />
            <mxPoint x="230" y="290" as="targetPoint" />
            <Array as="points">
              <mxPoint x="440" y="160" />
            </Array>
          </mxGeometry>
        </mxCell>
        <mxCell id="dJaQee-8s53nD2EW2IF9-17" value="Text" style="text;html=1;align=center;verticalAlign=middle;resizable=0;points=[];autosize=1;strokeColor=none;fillColor=none;" vertex="1" parent="1">
          <mxGeometry x="145" y="158" width="50" height="30" as="geometry" />
        </mxCell>
      </root>
    </mxGraphModel>
  </diagram>
</mxfile>
